<svg width="56" height="56" viewBox="0 0 56 56" fill="none" xmlns="http://www.w3.org/2000/svg">
<path d="M24.8458 54.1945C24.8995 54.7933 25.3548 55.2781 25.949 55.3695C26.5432 55.4609 27.1231 55.1351 27.3542 54.5802C29.8256 48.6468 38.8433 36.1021 54.8788 33.8419C55.4918 33.7555 55.9601 33.2509 56.0006 32.6332C56.0412 32.0155 55.6428 31.454 55.0464 31.2883C47.926 29.3092 43.0072 24.3945 39.7356 18.9434C36.4567 13.4804 34.8943 7.57338 34.4648 3.84913C34.3967 3.25872 33.9389 2.78856 33.3505 2.70482C32.7621 2.62108 32.1913 2.94484 31.9612 3.49281C25.0022 20.0655 10.7137 24.1931 4.61147 24.2218C3.9726 24.2248 3.42951 24.6892 3.32736 25.3199C3.2252 25.9505 3.59392 26.5626 4.19918 26.7672C10.4075 28.8651 23.3311 37.3241 24.8458 54.1945Z" fill="#B3B3B3"/>
<path d="M52.1733 30.5805C52.4798 30.5373 52.7139 30.2851 52.7342 29.9762C52.7545 29.6673 52.5553 29.3866 52.2571 29.3037C44.9285 27.2668 39.8899 22.2122 36.5609 16.6656C33.2283 11.113 31.64 5.11457 31.2013 1.3098C31.1672 1.01459 30.9383 0.779514 30.6441 0.737644C30.3499 0.695775 30.0645 0.857652 29.9495 1.13164C22.8692 17.9932 8.30914 22.2315 2.00022 22.2611C1.68079 22.2626 1.40924 22.4948 1.35817 22.8102C1.30709 23.1255 1.49145 23.4316 1.79408 23.5338C8.15829 25.6844 21.3372 34.311 22.8824 51.5219C22.9093 51.8212 23.1369 52.0637 23.434 52.1094C23.7311 52.155 24.021 51.9922 24.1366 51.7147C26.6633 45.6484 35.8346 32.8835 52.1733 30.5805Z" fill="#FC75FF" stroke="black" stroke-width="1.30707" stroke-linejoin="round"/>
<path d="M37.9197 28.3083C30.6001 30.3996 26.3739 36.4775 24.849 39.4184C23.8687 34.8437 20.2742 27.0012 15.6995 25.0406C17.769 24.9317 24.1954 20.4659 28.4434 13.9305C30.5348 22.2958 35.5234 26.8923 37.9197 28.3083Z" fill="white" stroke="black" stroke-width="1.30707" stroke-linecap="round" stroke-linejoin="round"/>
</svg>
